<?xml version="1.0" encoding="UTF-8"?><svg id="Layer_1" xmlns="http://www.w3.org/2000/svg" viewBox="0 0 128 129"><defs><style>.cls-1{fill:#fff;}</style></defs><path class="cls-1" d="M82.42,112.28l6.7-11.6h-16.68l6.7,11.6c.73,1.26,2.55,1.26,3.28,0Z"/><rect class="cls-1" x="10.67" y="32.73" width="87.69" height="67.95" rx="2.02" ry="2.02"/><path class="cls-1" d="M114.53,19.88V63.73c0,1.39-1.13,2.52-2.52,2.52h-2.55c-1.39,0-2.52-1.13-2.52-2.52V27.47c0-1.39-1.13-2.52-2.52-2.52H60.79c-1.39,0-2.52-1.13-2.52-2.52v-2.55c0-1.39,1.13-2.52,2.52-2.52h51.21c1.39,0,2.52,1.13,2.52,2.52Z"/></svg>