<?xml version="1.0" encoding="UTF-8"?><svg id="Layer_1" xmlns="http://www.w3.org/2000/svg" viewBox="0 0 128 129"><defs><style>.cls-1{fill:#fff;}</style></defs><rect class="cls-1" x="75.55" y="64.46" width="23.59" height="51.42" rx="8.59" ry="8.59" transform="translate(-37.62 78.23) rotate(-40.46)"/><path class="cls-1" d="M30.14,23.08c-14.68,12.52-16.43,34.55-3.92,49.21,12.5,14.66,34.54,16.41,49.22,3.9,14.66-12.5,16.41-34.54,3.91-49.2-12.5-14.66-34.54-16.41-49.2-3.91Zm38.66,45.34c-10.37,8.85-25.95,7.61-34.8-2.76-8.85-10.37-7.61-25.95,2.76-34.8,10.36-8.84,25.95-7.61,34.8,2.76,8.85,10.37,7.6,25.96-2.76,34.8Z"/></svg>