<?xml version="1.0" encoding="UTF-8"?><svg id="Layer_1" xmlns="http://www.w3.org/2000/svg" viewBox="0 0 128 129"><defs><style>.cls-1{fill:#fff;stroke:#fff;stroke-miterlimit:10;stroke-width:1.22px;}</style></defs><path class="cls-1" d="M45.95,97.45c-2.36,1.25-5.07,2.41-7.46,4.03-2.56,1.73-4.19,.97-6.16-.98-6.91-6.83-6.97-6.77-2.6-15.27,2.22-4.31-.33-10.04-5.01-11.48-10.54-3.26-8.01-1.19-8.65-10.88-.29-4.42,1.47-6.22,5.42-7.09,3.37-.74,6.49-1.24,8.2-5.54,1.52-3.83,.27-6.19-1.24-9.12-.98-1.92-2.74-4.97-2.03-5.94,2.39-3.25,5.5-6.13,8.86-8.38,.97-.65,4.04,.92,5.54,2.19,4,3.37,7.95,2.27,11.49-.1,1.56-1.04,2.34-3.64,2.93-5.69,1.86-6.5,1.76-6.52,8.44-6.52,1.33,0,2.68,.14,3.98-.03,2.49-.33,3.67,.93,4.28,3.09,.36,1.27,.95,2.53,1.05,3.82,.39,5.17,4.52,6.27,8.29,7.65,.79,.29,2-.18,2.87-.6,2.02-.98,4.02-2.04,5.91-3.26,2.2-1.42,3.77-.84,5.56,.87,7.18,6.82,7.23,6.77,2.75,15.62-2.16,4.26,.29,9.78,4.78,11.23,2.83,.91,7.09,1.55,7.92,3.5,1.4,3.28,.73,7.51,.59,11.33-.03,.81-1.37,1.84-2.33,2.29-1.54,.72-3.28,1.01-4.92,1.52-6.93,2.14-8.74,6.83-5.29,13.34,4.23,7.97,4.02,5.83-1.87,11.78-5,5.06-3.25,4.65-9.93,1.53-2.68-1.25-4.72-3.41-8.63-1.94-4.16,1.57-4.94,4.35-6.07,7.79-2.47,7.49-.64,6.02-8.19,6.19-1.33,.03-2.67-.12-3.98,.03-2.42,.27-3.72-.8-4.3-3.08-.45-1.8-1.02-3.56-1.55-5.34-.85-2.84-5.6-6.53-8.66-6.52Zm35.65-32.98c.03-9.46-7.91-17.41-17.45-17.48-9.56-.07-17.69,8.13-17.61,17.76,.07,9.14,8.09,17.16,17.27,17.29,9.6,.13,17.76-7.92,17.79-17.57Z"/></svg>