<?xml version="1.0" encoding="UTF-8"?><svg id="Layer_1" xmlns="http://www.w3.org/2000/svg" viewBox="0 0 128 129"><defs><style>.cls-1{fill:#fff;}</style></defs><path class="cls-1" d="M13.11,22.4c.38-.77,.93-1.41,1.63-1.93,.6-.44,1.73-.72,2.47-.67,2.47,.18,4.94,.39,7.41,.59,3.27,.27,6.54,.54,9.8,.79,.85,.07,.85,.05,1.06,.85,5.17,19.15,10.34,38.31,15.51,57.46,.04,.13,.08,.26,.13,.44h.67c16.04,0,32.08,0,48.13,0,.8,0,1.94,.43,2.54,.95,1.09,.95,2.15,1.94,2.09,3.8-.04,1.17-.55,2.28-1.31,3.17-.63,.75-1.39,1.37-2.2,1.94-.16,.11-.42,.12-.64,.12-4.55,0-9.1,0-13.64,0H45.17c-.38-1.32-.76-2.63-1.14-3.95-5.27-18.39-10.54-36.78-15.79-55.17-.12-.43-.31-.55-.74-.56-3.6-.06-7.21-.15-10.81-.22-1.02-.02-1.96-.55-2.51-1.41s-.98-1.75-1.28-2.72l.2-3.51Z"/><path class="cls-1" d="M83.74,73.5c-7.46,0-14.93,0-22.39,0-.57,0-1.15-.04-1.71-.11-2.09-.28-3.3-1.52-3.83-3.51-1.12-4.26-2.25-8.51-3.38-12.76-2-7.54-4-15.07-5.99-22.61-.5-1.88,.04-3.22,1.72-4.23,.96-.58,1.99-.89,3.12-.79,2.99,.25,5.98,.51,8.97,.77,3.02,.26,6.05,.53,9.07,.79,3.4,.3,6.81,.6,10.21,.89,3.42,.3,6.85,.58,10.27,.88,3.35,.29,6.71,.59,10.06,.89,3.35,.29,6.71,.6,10.06,.87,3.17,.26,5.15,2.74,4.75,5.91-.56,4.47-1.07,8.95-1.61,13.43-.5,4.18-1.01,8.37-1.52,12.55-.11,.95-.2,1.9-.31,2.84-.3,2.47-2.2,4.18-4.7,4.2-1.6,.02-3.19,0-4.79,0-6.01,0-12.01,0-18.02,0h0Z"/><path class="cls-1" d="M48.46,101.53c0-4.54,3.63-8.24,8.11-8.23,4.45,0,8.08,3.68,8.09,8.2,0,4.57-3.58,8.24-8.08,8.25-4.49,.01-8.11-3.66-8.12-8.22Z"/><path class="cls-1" d="M93.23,109.73c-4.44,0-8.02-3.65-8-8.15,.01-4.53,3.61-8.15,8.07-8.13,4.43,.02,8.01,3.69,7.99,8.18-.03,4.5-3.62,8.11-8.06,8.1Z"/></svg>