<?xml version="1.0" encoding="UTF-8"?><svg id="Layer_1" xmlns="http://www.w3.org/2000/svg" viewBox="0 0 128 129"><defs><style>.cls-1{fill:#fff;}</style></defs><path class="cls-1" d="M10.65,62.74v-3.42c.03-.15,.08-.3,.09-.45,.24-3.07,1.23-5.97,2.89-8.69,1.73-2.82,4.13-5.12,7.46-6.67,1.92-.9,3.96-1.29,6.15-1.3,7.64-.05,15.28-.12,22.92-.2,.28,0,.58-.03,.85-.11,2.54-.76,4.87-1.86,6.9-3.36,3.2-2.37,6.36-4.78,9.49-7.21,3.17-2.47,6.37-4.9,9.98-6.92,4.78-2.67,9.9-4.54,15.69-4.91,3.69-.23,7.01,.5,9.89,2.53,1.7,1.2,3.16,2.59,4.42,4.12,2.78,3.38,4.65,7.12,6.07,11.04,2.56,7.07,3.68,14.34,3.89,21.71,.15,5.2-.23,10.38-1.15,15.52-.82,4.56-2.04,9.03-3.94,13.36-1.65,3.75-3.81,7.25-6.93,10.29-2.1,2.04-4.57,3.6-7.76,4.18-2.48,.45-4.95,.26-7.41-.1-4.67-.69-8.87-2.34-12.78-4.57-3.9-2.23-7.36-4.9-10.81-7.59-2.83-2.21-5.7-4.38-8.59-6.54-1.36-1.01-2.9-1.81-4.54-2.51,0,.07-.01,.1,0,.12,.1,.18,.21,.36,.31,.54,.7,1.16,1.22,2.38,1.23,3.7,.03,3.76-1.94,6.58-5.72,8.5-.36,.18-.74,.34-1.06,.56-.13,.09-.25,.31-.22,.45,.6,3.22,1.23,6.44,1.83,9.66,.24,1.32,.45,2.65,.61,3.98,.08,.67-.35,1.14-1.05,1.43-.13,.05-.24,.12-.37,.17h-.87c-.23-.05-.45-.1-.68-.14-4.42-.92-8.84-1.83-13.24-2.77-1.56-.33-3.11-.73-4.64-1.15-.78-.21-.94-.49-.94-1.16-.02-4.02-.04-8.04-.06-12.07-.01-2.94-.05-5.89-.81-8.78-.28-1.05-.62-2.09-1-3.11-.25-.69-.82-1.09-1.72-1.24-3.62-.6-6.53-2.22-8.87-4.6-2.86-2.92-4.38-6.35-5.16-10.04-.16-.75-.22-1.52-.33-2.28Zm102.41-2.07c-.19-2.86-.28-6.03-.63-9.19-.49-4.47-1.5-8.87-3.07-13.16-1.26-3.43-2.81-6.77-5.24-9.74-1.39-1.7-2.95-3.29-5.05-4.41-2.5-1.32-5.05-1.39-7.61-.1-2.38,1.2-4.12,2.95-5.58,4.91-2.9,3.86-4.67,8.12-5.98,12.52-1.6,5.38-2.31,10.87-2.53,16.41-.28,7.07,.33,14.07,2.11,20.98,1.06,4.15,2.53,8.18,4.86,11.96,1.5,2.43,3.34,4.66,5.89,6.4,2.99,2.04,6.43,2.12,9.53,.21,.83-.51,1.6-1.12,2.3-1.76,2.02-1.86,3.48-4.05,4.74-6.33,3.43-6.22,4.97-12.85,5.75-19.61,.34-2.91,.35-5.84,.53-9.09Z"/><path class="cls-1" d="M87.5,52.22h1.18c4.22,0,7.64,3.42,7.64,7.64v3.37c0,4.22-3.42,7.64-7.64,7.64h-1.18c-3.41,0-6.18-2.77-6.18-6.18v-6.29c0-3.41,2.77-6.18,6.18-6.18Z"/></svg>