<?xml version="1.0" encoding="UTF-8"?><svg id="Layer_1" xmlns="http://www.w3.org/2000/svg" viewBox="0 0 128 128"><defs><style>.cls-1{fill:#fff;}</style></defs><path class="cls-1" d="M95.49,60.94h-22.11c-3.73,0-6.75-3.02-6.75-6.75v-22.11c0-3.73,3.02-6.75,6.75-6.75h22.11c3.73,0,6.75,3.02,6.75,6.75v22.11c0,3.73-3.02,6.75-6.75,6.75Z"/><path class="cls-1" d="M118.78,100.59c.07,1.12-.85,2.07-1.97,2.07h-46.34c0-9.39-4.85-17.63-12.19-22.37,6.31-7.37,15.69-12.04,26.14-12.04,18.32,0,33.28,14.31,34.36,32.34Z"/><path class="cls-1" d="M44.58,70.36H27.46c-2.89,0-5.22-2.34-5.22-5.22v-17.12c0-2.89,2.34-5.22,5.22-5.22h17.12c2.89,0,5.22,2.34,5.22,5.22v17.12c0,2.89-2.34,5.22-5.22,5.22Z"/><path class="cls-1" d="M10.95,102.66c-.87,0-1.58-.73-1.52-1.6,.83-13.97,12.42-25.04,26.59-25.04s25.77,11.07,26.6,25.04c.05,.87-.65,1.6-1.52,1.6H10.95Z"/></svg>