<?xml version="1.0" encoding="UTF-8"?><svg id="Layer_1" xmlns="http://www.w3.org/2000/svg" viewBox="0 0 128 128"><defs><style>.cls-1{fill:#fff;}</style></defs><path class="cls-1" d="M118.03,57.86l-2.02-34.14c-.05-.91-.78-1.64-1.69-1.69l-34.14-2.01c-.51-.03-1.01,.16-1.38,.53l-46.75,46.75c-.7,.7-.7,1.84,0,2.54l36.16,36.16c.7,.7,1.84,.7,2.55,0l46.74-46.74c.36-.36,.56-.87,.52-1.38Zm-18.36-18.26c-2.94-2.13-2.95-6.44-.03-8.59,1.81-1.33,4.38-1.33,6.2,0,2.91,2.13,2.93,6.41,.03,8.56-1.81,1.34-4.38,1.35-6.2,.03Z"/><path class="cls-1" d="M61.1,110.83l-2.86,2.86c-.7,.7-1.85,.7-2.55,0L11.92,69.93c-.7-.7-.7-1.85,0-2.55L65.49,13.81c.7-.7,1.85-.7,2.55,0l2.86,2.86c.7,.7,.7,1.85,0,2.55L22.75,67.37c-.7,.7-.7,1.85,0,2.55l38.35,38.35c.7,.7,.7,1.85,0,2.55Z"/></svg>