<?xml version="1.0" encoding="UTF-8"?><svg id="Layer_1" xmlns="http://www.w3.org/2000/svg" viewBox="0 0 128 129"><defs><style>.cls-1{fill:#fff;}</style></defs><path class="cls-1" d="M73.84,64.81h-19.06c-3.21,0-5.82-2.61-5.82-5.82v-19.06c0-3.21,2.61-5.82,5.82-5.82h19.06c3.21,0,5.82,2.61,5.82,5.82v19.06c0,3.21-2.61,5.82-5.82,5.82Z"/><path class="cls-1" d="M36.39,100.78c-.97,0-1.75-.81-1.7-1.78,.92-15.55,13.83-27.89,29.62-27.89s28.7,12.33,29.62,27.89c.06,.97-.73,1.78-1.7,1.78H36.39Z"/><path class="cls-1" d="M35.48,50.58h-13.89c-2.34,0-4.24-1.9-4.24-4.24v-13.89c0-2.34,1.9-4.24,4.24-4.24h13.89c2.34,0,4.24,1.9,4.24,4.24v13.89c0,2.34-1.9,4.24-4.24,4.24Z"/><path class="cls-1" d="M48.68,68.97c-4.76,1.22-8.89,4.03-11.79,7.82H8.19c-.71,0-1.27-.6-1.24-1.3,.67-11.34,10.08-20.32,21.58-20.32,9.18,0,17.02,5.72,20.15,13.79Z"/><path class="cls-1" d="M106.41,51.5h-13.89c-2.34,0-4.24-1.9-4.24-4.24v-13.89c0-2.34,1.9-4.24,4.24-4.24h13.89c2.34,0,4.24,1.9,4.24,4.24v13.89c0,2.34-1.9,4.24-4.24,4.24Z"/><path class="cls-1" d="M121.04,76.41c.04,.7-.53,1.3-1.24,1.3h-28.98c-2.84-3.73-6.87-6.51-11.53-7.75,3.11-8.11,10.97-13.86,20.17-13.86,11.5,0,20.91,8.98,21.58,20.32Z"/></svg>